<?xml version="1.0" encoding="UTF-8" standalone="no"?>
<!DOCTYPE svg PUBLIC "-//W3C//DTD SVG 1.1//EN"
 "http://www.w3.org/Graphics/SVG/1.1/DTD/svg11.dtd">
<!-- Generated by graphviz version 2.42.3 (20191010.1750)
 -->
<!-- Title: finite_state_machine Pages: 1 -->
<svg width="317pt" height="86pt"
 viewBox="0.00 0.00 317.00 86.00" xmlns="http://www.w3.org/2000/svg" xmlns:xlink="http://www.w3.org/1999/xlink">
<g id="graph0" class="graph" transform="scale(1 1) rotate(0) translate(4 82)">
<title>finite_state_machine</title>
<polygon fill="white" stroke="transparent" points="-4,4 -4,-82 313,-82 313,4 -4,4"/>
<!-- 1 -->
<g id="node1" class="node">
<title>1</title>
<ellipse fill="none" stroke="black" cx="109" cy="-60" rx="18" ry="18"/>
<text text-anchor="middle" x="109" y="-56.3" font-family="Helvetica,Arial,sans-serif" font-size="14.00">1</text>
</g>
<!-- 3 -->
<g id="node2" class="node">
<title>3</title>
<ellipse fill="none" stroke="black" cx="291" cy="-45" rx="18" ry="18"/>
<text text-anchor="middle" x="291" y="-41.3" font-family="Helvetica,Arial,sans-serif" font-size="14.00">3</text>
</g>
<!-- 1&#45;&gt;3 -->
<g id="edge1" class="edge">
<title>1&#45;&gt;3</title>
<path fill="none" stroke="black" d="M127.04,-59.9C154.22,-59.56 209.01,-58.09 255,-52 257.73,-51.64 260.56,-51.19 263.38,-50.7"/>
<polygon fill="black" stroke="black" points="264.18,-54.11 273.34,-48.8 262.86,-47.24 264.18,-54.11"/>
<text text-anchor="middle" x="200" y="-61.8" font-family="Helvetica,Arial,sans-serif" font-size="14.00">0/4</text>
</g>
<!-- 2 -->
<g id="node3" class="node">
<title>2</title>
<ellipse fill="none" stroke="black" cx="200" cy="-18" rx="18" ry="18"/>
<text text-anchor="middle" x="200" y="-14.3" font-family="Helvetica,Arial,sans-serif" font-size="14.00">2</text>
</g>
<!-- 1&#45;&gt;2 -->
<g id="edge2" class="edge">
<title>1&#45;&gt;2</title>
<path fill="none" stroke="black" d="M125.65,-52.32C131.69,-49.38 138.65,-46.01 145,-43 154.46,-38.51 164.89,-33.66 174.05,-29.44"/>
<polygon fill="black" stroke="black" points="175.75,-32.51 183.37,-25.14 172.82,-26.15 175.75,-32.51"/>
<text text-anchor="middle" x="154.5" y="-46.8" font-family="Helvetica,Arial,sans-serif" font-size="14.00">0/2</text>
</g>
<!-- 2&#45;&gt;3 -->
<g id="edge3" class="edge">
<title>2&#45;&gt;3</title>
<path fill="none" stroke="black" d="M217.32,-22.95C230.29,-26.89 248.68,-32.46 263.71,-37.03"/>
<polygon fill="black" stroke="black" points="262.89,-40.43 273.48,-39.99 264.92,-33.74 262.89,-40.43"/>
<text text-anchor="middle" x="245.5" y="-36.8" font-family="Helvetica,Arial,sans-serif" font-size="14.00">0/3</text>
</g>
<!-- 0 -->
<g id="node4" class="node">
<title>0</title>
<ellipse fill="none" stroke="black" cx="18" cy="-30" rx="18" ry="18"/>
<text text-anchor="middle" x="18" y="-26.3" font-family="Helvetica,Arial,sans-serif" font-size="14.00">0</text>
</g>
<!-- 0&#45;&gt;1 -->
<g id="edge5" class="edge">
<title>0&#45;&gt;1</title>
<path fill="none" stroke="black" d="M35.32,-35.5C48.37,-39.9 66.91,-46.15 82,-51.23"/>
<polygon fill="black" stroke="black" points="81.19,-54.65 91.78,-54.53 83.42,-48.02 81.19,-54.65"/>
<text text-anchor="middle" x="63.5" y="-50.8" font-family="Helvetica,Arial,sans-serif" font-size="14.00">0/0</text>
</g>
<!-- 0&#45;&gt;2 -->
<g id="edge4" class="edge">
<title>0&#45;&gt;2</title>
<path fill="none" stroke="black" d="M35.78,-26.4C50.31,-23.47 71.93,-19.58 91,-18 118.34,-15.74 149.7,-16.06 171.55,-16.75"/>
<polygon fill="black" stroke="black" points="171.63,-20.26 181.76,-17.13 171.89,-13.26 171.63,-20.26"/>
<text text-anchor="middle" x="109" y="-21.8" font-family="Helvetica,Arial,sans-serif" font-size="14.00">0/1</text>
</g>
</g>
</svg>
