<?xml version="1.0" encoding="UTF-8" standalone="no"?>
<!DOCTYPE svg PUBLIC "-//W3C//DTD SVG 1.1//EN"
 "http://www.w3.org/Graphics/SVG/1.1/DTD/svg11.dtd">
<!-- Generated by graphviz version 2.42.3 (20191010.1750)
 -->
<!-- Title: finite_state_machine Pages: 1 -->
<svg width="460pt" height="463pt"
 viewBox="0.00 0.00 460.00 463.00" xmlns="http://www.w3.org/2000/svg" xmlns:xlink="http://www.w3.org/1999/xlink">
<g id="graph0" class="graph" transform="scale(1 1) rotate(0) translate(4 459)">
<title>finite_state_machine</title>
<polygon fill="white" stroke="transparent" points="-4,4 -4,-459 456,-459 456,4 -4,4"/>
<!-- 3 -->
<g id="node1" class="node">
<title>3</title>
<ellipse fill="none" stroke="black" cx="18" cy="-209" rx="18" ry="18"/>
<text text-anchor="middle" x="18" y="-205.3" font-family="Helvetica,Arial,sans-serif" font-size="14.00">3</text>
</g>
<!-- 4 -->
<g id="node2" class="node">
<title>4</title>
<ellipse fill="none" stroke="black" cx="98" cy="-209" rx="18" ry="18"/>
<text text-anchor="middle" x="98" y="-205.3" font-family="Helvetica,Arial,sans-serif" font-size="14.00">4</text>
</g>
<!-- 3&#45;&gt;4 -->
<g id="edge1" class="edge">
<title>3&#45;&gt;4</title>
<path fill="none" stroke="black" d="M32.56,-198.41C40.85,-193.21 51.77,-188.52 62,-191 65.74,-191.91 69.53,-193.28 73.16,-194.88"/>
<polygon fill="black" stroke="black" points="71.78,-198.1 82.28,-199.46 74.91,-191.85 71.78,-198.1"/>
<text text-anchor="middle" x="58" y="-194.8" font-family="Helvetica,Arial,sans-serif" font-size="14.00">5</text>
</g>
<!-- 2 -->
<g id="node3" class="node">
<title>2</title>
<ellipse fill="none" stroke="black" cx="434" cy="-290" rx="18" ry="18"/>
<text text-anchor="middle" x="434" y="-286.3" font-family="Helvetica,Arial,sans-serif" font-size="14.00">2</text>
</g>
<!-- 3&#45;&gt;2 -->
<g id="edge2" class="edge">
<title>3&#45;&gt;2</title>
<path fill="none" stroke="black" d="M20.07,-227.06C23.02,-271.66 32.51,-385.55 54,-416 66.62,-433.88 75.11,-440 97,-440 97,-440 97,-440 355,-440 409.37,-440 425.9,-361.47 430.88,-318.05"/>
<polygon fill="black" stroke="black" points="434.36,-318.4 431.89,-308.09 427.4,-317.69 434.36,-318.4"/>
<text text-anchor="middle" x="230" y="-443.8" font-family="Helvetica,Arial,sans-serif" font-size="14.00">2</text>
</g>
<!-- 0 -->
<g id="node4" class="node">
<title>0</title>
<ellipse fill="none" stroke="black" cx="354" cy="-193" rx="18" ry="18"/>
<text text-anchor="middle" x="354" y="-189.3" font-family="Helvetica,Arial,sans-serif" font-size="14.00">0</text>
</g>
<!-- 3&#45;&gt;0 -->
<g id="edge3" class="edge">
<title>3&#45;&gt;0</title>
<path fill="none" stroke="black" d="M21.71,-191.18C29.9,-140.64 56.33,0 97,0 97,0 97,0 275,0 345.16,0 353.77,-110.98 353.83,-164.63"/>
<polygon fill="black" stroke="black" points="350.33,-164.81 353.74,-174.84 357.33,-164.87 350.33,-164.81"/>
<text text-anchor="middle" x="186" y="-3.8" font-family="Helvetica,Arial,sans-serif" font-size="14.00">10</text>
</g>
<!-- 1 -->
<g id="node5" class="node">
<title>1</title>
<ellipse fill="none" stroke="black" cx="274" cy="-155" rx="18" ry="18"/>
<text text-anchor="middle" x="274" y="-151.3" font-family="Helvetica,Arial,sans-serif" font-size="14.00">1</text>
</g>
<!-- 3&#45;&gt;1 -->
<g id="edge4" class="edge">
<title>3&#45;&gt;1</title>
<path fill="none" stroke="black" d="M18.07,-190.59C17.61,-160.57 21.25,-101.03 54,-67 79.65,-40.34 97.37,-49.16 134,-44 180.88,-37.4 202.53,-35.65 238,-67 255.44,-82.42 264.29,-107.69 268.72,-127.21"/>
<polygon fill="black" stroke="black" points="265.31,-127.97 270.71,-137.08 272.17,-126.59 265.31,-127.97"/>
<text text-anchor="middle" x="142" y="-47.8" font-family="Helvetica,Arial,sans-serif" font-size="14.00">1</text>
</g>
<!-- 4&#45;&gt;3 -->
<g id="edge16" class="edge">
<title>4&#45;&gt;3</title>
<path fill="none" stroke="black" d="M79.74,-209C69.95,-209 57.48,-209 46.39,-209"/>
<polygon fill="black" stroke="black" points="46.31,-205.5 36.31,-209 46.31,-212.5 46.31,-205.5"/>
<text text-anchor="middle" x="58" y="-212.8" font-family="Helvetica,Arial,sans-serif" font-size="14.00">0</text>
</g>
<!-- 4&#45;&gt;2 -->
<g id="edge17" class="edge">
<title>4&#45;&gt;2</title>
<path fill="none" stroke="black" d="M113.94,-217.8C120,-221.07 127.18,-224.58 134,-227 231.04,-261.47 352.84,-279.89 406.05,-286.78"/>
<polygon fill="black" stroke="black" points="405.68,-290.26 416.04,-288.04 406.56,-283.32 405.68,-290.26"/>
<text text-anchor="middle" x="274" y="-270.8" font-family="Helvetica,Arial,sans-serif" font-size="14.00">8</text>
</g>
<!-- 4&#45;&gt;1 -->
<g id="edge15" class="edge">
<title>4&#45;&gt;1</title>
<path fill="none" stroke="black" d="M115.93,-211.57C137.16,-214.12 174.38,-216.31 204,-206 222.46,-199.57 240.13,-186.33 252.97,-174.95"/>
<polygon fill="black" stroke="black" points="255.7,-177.19 260.66,-167.83 250.95,-172.05 255.7,-177.19"/>
<text text-anchor="middle" x="186" y="-216.8" font-family="Helvetica,Arial,sans-serif" font-size="14.00">0</text>
</g>
<!-- 5 -->
<g id="node6" class="node">
<title>5</title>
<ellipse fill="none" stroke="black" cx="186" cy="-127" rx="18" ry="18"/>
<text text-anchor="middle" x="186" y="-123.3" font-family="Helvetica,Arial,sans-serif" font-size="14.00">5</text>
</g>
<!-- 4&#45;&gt;5 -->
<g id="edge18" class="edge">
<title>4&#45;&gt;5</title>
<path fill="none" stroke="black" d="M100.3,-191C102.89,-169.92 110.67,-135.89 134,-120 141.43,-114.94 150.9,-114.94 159.66,-116.8"/>
<polygon fill="black" stroke="black" points="158.86,-120.21 169.44,-119.65 160.82,-113.49 158.86,-120.21"/>
<text text-anchor="middle" x="142" y="-123.8" font-family="Helvetica,Arial,sans-serif" font-size="14.00">6</text>
</g>
<!-- 2&#45;&gt;3 -->
<g id="edge12" class="edge">
<title>2&#45;&gt;3</title>
<path fill="none" stroke="black" d="M429.34,-307.5C421.62,-339 400.49,-402 355,-402 97,-402 97,-402 97,-402 26.84,-402 18.23,-291.02 18.17,-237.37"/>
<polygon fill="black" stroke="black" points="21.67,-237.19 18.26,-227.16 14.67,-237.13 21.67,-237.19"/>
<text text-anchor="middle" x="230" y="-405.8" font-family="Helvetica,Arial,sans-serif" font-size="14.00">0</text>
</g>
<!-- 2&#45;&gt;4 -->
<g id="edge14" class="edge">
<title>2&#45;&gt;4</title>
<path fill="none" stroke="black" d="M416.68,-295.6C368.63,-310.99 225.35,-348.96 134,-289 116.44,-277.47 107.63,-254.98 103.25,-236.78"/>
<polygon fill="black" stroke="black" points="106.67,-236.01 101.2,-226.94 99.81,-237.44 106.67,-236.01"/>
<text text-anchor="middle" x="274" y="-324.8" font-family="Helvetica,Arial,sans-serif" font-size="14.00">4</text>
</g>
<!-- 2&#45;&gt;0 -->
<g id="edge13" class="edge">
<title>2&#45;&gt;0</title>
<path fill="none" stroke="black" d="M424.3,-274.75C417.66,-263.6 407.98,-248.33 398,-236 391.27,-227.68 383.13,-219.21 375.75,-212.01"/>
<polygon fill="black" stroke="black" points="377.8,-209.13 368.14,-204.77 372.97,-214.2 377.8,-209.13"/>
<text text-anchor="middle" x="394" y="-239.8" font-family="Helvetica,Arial,sans-serif" font-size="14.00">8</text>
</g>
<!-- 0&#45;&gt;3 -->
<g id="edge10" class="edge">
<title>0&#45;&gt;3</title>
<path fill="none" stroke="black" d="M352.68,-211.08C350.87,-254.1 339.8,-359 275,-359 97,-359 97,-359 97,-359 42.63,-359 26.1,-280.47 21.12,-237.05"/>
<polygon fill="black" stroke="black" points="24.6,-236.69 20.11,-227.09 17.64,-237.4 24.6,-236.69"/>
<text text-anchor="middle" x="186" y="-362.8" font-family="Helvetica,Arial,sans-serif" font-size="14.00">0</text>
</g>
<!-- 0&#45;&gt;2 -->
<g id="edge11" class="edge">
<title>0&#45;&gt;2</title>
<path fill="none" stroke="black" d="M372.03,-190.58C380.62,-190.28 390.73,-191.45 398,-197 418.06,-212.31 426.63,-240.49 430.28,-261.83"/>
<polygon fill="black" stroke="black" points="426.85,-262.57 431.74,-271.97 433.78,-261.57 426.85,-262.57"/>
<text text-anchor="middle" x="394" y="-200.8" font-family="Helvetica,Arial,sans-serif" font-size="14.00">0</text>
</g>
<!-- 0&#45;&gt;1 -->
<g id="edge9" class="edge">
<title>0&#45;&gt;1</title>
<path fill="none" stroke="black" d="M337.62,-185.51C326.73,-180.2 311.9,-172.98 299.41,-166.89"/>
<polygon fill="black" stroke="black" points="300.93,-163.74 290.41,-162.51 297.87,-170.03 300.93,-163.74"/>
<text text-anchor="middle" x="314" y="-178.8" font-family="Helvetica,Arial,sans-serif" font-size="14.00">0</text>
</g>
<!-- 1&#45;&gt;3 -->
<g id="edge7" class="edge">
<title>1&#45;&gt;3</title>
<path fill="none" stroke="black" d="M265.03,-139.16C258.99,-128.76 249.74,-115.7 238,-108 199.1,-82.47 177.06,-78.38 134,-96 89.82,-114.07 53.47,-158.22 34.12,-185.67"/>
<polygon fill="black" stroke="black" points="31.21,-183.72 28.45,-193.95 36.99,-187.68 31.21,-183.72"/>
<text text-anchor="middle" x="142" y="-99.8" font-family="Helvetica,Arial,sans-serif" font-size="14.00">10</text>
</g>
<!-- 1&#45;&gt;4 -->
<g id="edge5" class="edge">
<title>1&#45;&gt;4</title>
<path fill="none" stroke="black" d="M256.55,-160.11C226.3,-169.49 161.63,-189.56 125.26,-200.85"/>
<polygon fill="black" stroke="black" points="123.88,-197.61 115.37,-203.92 125.96,-204.3 123.88,-197.61"/>
<text text-anchor="middle" x="186" y="-190.8" font-family="Helvetica,Arial,sans-serif" font-size="14.00">1</text>
</g>
<!-- 1&#45;&gt;0 -->
<g id="edge6" class="edge">
<title>1&#45;&gt;0</title>
<path fill="none" stroke="black" d="M291.99,-152.44C300.18,-151.93 309.95,-152.42 318,-156 325.22,-159.21 331.67,-164.69 337,-170.46"/>
<polygon fill="black" stroke="black" points="334.46,-172.88 343.54,-178.33 339.84,-168.4 334.46,-172.88"/>
<text text-anchor="middle" x="314" y="-159.8" font-family="Helvetica,Arial,sans-serif" font-size="14.00">7</text>
</g>
<!-- 1&#45;&gt;5 -->
<g id="edge8" class="edge">
<title>1&#45;&gt;5</title>
<path fill="none" stroke="black" d="M264.13,-139.48C258.05,-130.51 249.09,-120.03 238,-115 229.78,-111.27 220.28,-112.23 211.72,-114.81"/>
<polygon fill="black" stroke="black" points="210.35,-111.59 202.23,-118.4 212.82,-118.13 210.35,-111.59"/>
<text text-anchor="middle" x="230" y="-118.8" font-family="Helvetica,Arial,sans-serif" font-size="14.00">4</text>
</g>
<!-- 5&#45;&gt;4 -->
<g id="edge20" class="edge">
<title>5&#45;&gt;4</title>
<path fill="none" stroke="black" d="M169.1,-134.42C158.4,-139.93 144.39,-148.17 134,-158 125.81,-165.75 118.45,-175.72 112.62,-184.79"/>
<polygon fill="black" stroke="black" points="109.56,-183.08 107.32,-193.44 115.53,-186.74 109.56,-183.08"/>
<text text-anchor="middle" x="142" y="-161.8" font-family="Helvetica,Arial,sans-serif" font-size="14.00">8</text>
</g>
<!-- 5&#45;&gt;1 -->
<g id="edge19" class="edge">
<title>5&#45;&gt;1</title>
<path fill="none" stroke="black" d="M203.58,-132.4C215.91,-136.41 232.98,-141.97 247.11,-146.57"/>
<polygon fill="black" stroke="black" points="246.17,-149.94 256.76,-149.71 248.34,-143.29 246.17,-149.94"/>
<text text-anchor="middle" x="230" y="-146.8" font-family="Helvetica,Arial,sans-serif" font-size="14.00">17</text>
</g>
</g>
</svg>
