<?xml version="1.0" encoding="UTF-8" standalone="no"?>
<!DOCTYPE svg PUBLIC "-//W3C//DTD SVG 1.1//EN"
 "http://www.w3.org/Graphics/SVG/1.1/DTD/svg11.dtd">
<!-- Generated by graphviz version 2.42.3 (20191010.1750)
 -->
<!-- Title: finite_state_machine Pages: 1 -->
<svg width="454pt" height="154pt"
 viewBox="0.00 0.00 454.00 154.00" xmlns="http://www.w3.org/2000/svg" xmlns:xlink="http://www.w3.org/1999/xlink">
<g id="graph0" class="graph" transform="scale(1 1) rotate(0) translate(4 150)">
<title>finite_state_machine</title>
<polygon fill="white" stroke="transparent" points="-4,4 -4,-150 450,-150 450,4 -4,4"/>
<!-- 0 -->
<g id="node1" class="node">
<title>0</title>
<ellipse fill="none" stroke="black" cx="18" cy="-77" rx="18" ry="18"/>
<text text-anchor="middle" x="18" y="-73.3" font-family="Helvetica,Arial,sans-serif" font-size="14.00">0</text>
</g>
<!-- 2 -->
<g id="node2" class="node">
<title>2</title>
<ellipse fill="none" stroke="black" cx="230" cy="-128" rx="18" ry="18"/>
<text text-anchor="middle" x="230" y="-124.3" font-family="Helvetica,Arial,sans-serif" font-size="14.00">2</text>
</g>
<!-- 0&#45;&gt;2 -->
<g id="edge1" class="edge">
<title>0&#45;&gt;2</title>
<path fill="none" stroke="black" d="M33.98,-86.08C40.04,-89.5 47.21,-93.24 54,-96 99.35,-114.46 111.61,-118.57 160,-126 173.7,-128.1 189.1,-128.71 201.87,-128.75"/>
<polygon fill="black" stroke="black" points="201.91,-132.25 211.88,-128.67 201.85,-125.25 201.91,-132.25"/>
<text text-anchor="middle" x="124" y="-125.8" font-family="Helvetica,Arial,sans-serif" font-size="14.00">8/8</text>
</g>
<!-- 3 -->
<g id="node3" class="node">
<title>3</title>
<ellipse fill="none" stroke="black" cx="124" cy="-77" rx="18" ry="18"/>
<text text-anchor="middle" x="124" y="-73.3" font-family="Helvetica,Arial,sans-serif" font-size="14.00">3</text>
</g>
<!-- 0&#45;&gt;3 -->
<g id="edge2" class="edge">
<title>0&#45;&gt;3</title>
<path fill="none" stroke="black" d="M36.17,-77C52.36,-77 76.87,-77 95.73,-77"/>
<polygon fill="black" stroke="black" points="95.8,-80.5 105.8,-77 95.8,-73.5 95.8,-80.5"/>
<text text-anchor="middle" x="71" y="-80.8" font-family="Helvetica,Arial,sans-serif" font-size="14.00">10/10</text>
</g>
<!-- 1 -->
<g id="node4" class="node">
<title>1</title>
<ellipse fill="none" stroke="black" cx="230" cy="-18" rx="18" ry="18"/>
<text text-anchor="middle" x="230" y="-14.3" font-family="Helvetica,Arial,sans-serif" font-size="14.00">1</text>
</g>
<!-- 0&#45;&gt;1 -->
<g id="edge3" class="edge">
<title>0&#45;&gt;1</title>
<path fill="none" stroke="black" d="M33.82,-68.06C50.68,-58.32 79.35,-43.06 106,-35 138,-25.33 176.36,-21.14 201.63,-19.33"/>
<polygon fill="black" stroke="black" points="202.17,-22.81 211.93,-18.68 201.73,-15.82 202.17,-22.81"/>
<text text-anchor="middle" x="124" y="-38.8" font-family="Helvetica,Arial,sans-serif" font-size="14.00">7/7</text>
</g>
<!-- 4 -->
<g id="node5" class="node">
<title>4</title>
<ellipse fill="none" stroke="black" cx="329" cy="-71" rx="18" ry="18"/>
<text text-anchor="middle" x="329" y="-67.3" font-family="Helvetica,Arial,sans-serif" font-size="14.00">4</text>
</g>
<!-- 2&#45;&gt;4 -->
<g id="edge4" class="edge">
<title>2&#45;&gt;4</title>
<path fill="none" stroke="black" d="M246.16,-119.09C261.67,-109.97 286.02,-95.67 304.13,-85.03"/>
<polygon fill="black" stroke="black" points="306.1,-87.93 312.95,-79.84 302.56,-81.89 306.1,-87.93"/>
<text text-anchor="middle" x="279.5" y="-109.8" font-family="Helvetica,Arial,sans-serif" font-size="14.00">8/12</text>
</g>
<!-- 3&#45;&gt;2 -->
<g id="edge6" class="edge">
<title>3&#45;&gt;2</title>
<path fill="none" stroke="black" d="M140.8,-84.75C157.69,-93.03 184.71,-106.28 204.4,-115.94"/>
<polygon fill="black" stroke="black" points="202.88,-119.09 213.4,-120.35 205.96,-112.8 202.88,-119.09"/>
<text text-anchor="middle" x="177" y="-113.8" font-family="Helvetica,Arial,sans-serif" font-size="14.00">0/2</text>
</g>
<!-- 3&#45;&gt;1 -->
<g id="edge7" class="edge">
<title>3&#45;&gt;1</title>
<path fill="none" stroke="black" d="M137.63,-65.05C144.01,-59.42 152.07,-52.88 160,-48 173.57,-39.66 189.86,-32.46 203.21,-27.21"/>
<polygon fill="black" stroke="black" points="204.64,-30.41 212.75,-23.58 202.16,-23.86 204.64,-30.41"/>
<text text-anchor="middle" x="177" y="-51.8" font-family="Helvetica,Arial,sans-serif" font-size="14.00">10/11</text>
</g>
<!-- 3&#45;&gt;4 -->
<g id="edge5" class="edge">
<title>3&#45;&gt;4</title>
<path fill="none" stroke="black" d="M142.31,-76.49C177.59,-75.45 258.07,-73.07 300.56,-71.81"/>
<polygon fill="black" stroke="black" points="300.84,-75.3 310.74,-71.51 300.64,-68.31 300.84,-75.3"/>
<text text-anchor="middle" x="230" y="-77.8" font-family="Helvetica,Arial,sans-serif" font-size="14.00">0/5</text>
</g>
<!-- 1&#45;&gt;4 -->
<g id="edge8" class="edge">
<title>1&#45;&gt;4</title>
<path fill="none" stroke="black" d="M246.83,-24.97C259.54,-30.72 277.71,-39.33 293,-48 297.02,-50.28 301.21,-52.85 305.22,-55.42"/>
<polygon fill="black" stroke="black" points="303.34,-58.37 313.62,-60.94 307.19,-52.52 303.34,-58.37"/>
<text text-anchor="middle" x="279.5" y="-51.8" font-family="Helvetica,Arial,sans-serif" font-size="14.00">0/1</text>
</g>
<!-- 5 -->
<g id="node6" class="node">
<title>5</title>
<ellipse fill="none" stroke="black" cx="428" cy="-30" rx="18" ry="18"/>
<text text-anchor="middle" x="428" y="-26.3" font-family="Helvetica,Arial,sans-serif" font-size="14.00">5</text>
</g>
<!-- 1&#45;&gt;5 -->
<g id="edge9" class="edge">
<title>1&#45;&gt;5</title>
<path fill="none" stroke="black" d="M248.05,-19.04C282.08,-21.13 358.66,-25.82 399.74,-28.33"/>
<polygon fill="black" stroke="black" points="399.65,-31.83 409.85,-28.95 400.08,-24.85 399.65,-31.83"/>
<text text-anchor="middle" x="329" y="-28.8" font-family="Helvetica,Arial,sans-serif" font-size="14.00">17/21</text>
</g>
<!-- 4&#45;&gt;5 -->
<g id="edge10" class="edge">
<title>4&#45;&gt;5</title>
<path fill="none" stroke="black" d="M346.02,-64.23C361.04,-57.88 383.76,-48.28 401.32,-40.86"/>
<polygon fill="black" stroke="black" points="403.11,-43.9 410.96,-36.78 400.38,-37.45 403.11,-43.9"/>
<text text-anchor="middle" x="378.5" y="-58.8" font-family="Helvetica,Arial,sans-serif" font-size="14.00">8/14</text>
</g>
</g>
</svg>
