<?xml version="1.0" encoding="UTF-8" standalone="no"?>
<!DOCTYPE svg PUBLIC "-//W3C//DTD SVG 1.1//EN"
 "http://www.w3.org/Graphics/SVG/1.1/DTD/svg11.dtd">
<!-- Generated by graphviz version 2.42.3 (20191010.1750)
 -->
<!-- Title: finite_state_machine Pages: 1 -->
<svg width="396pt" height="160pt"
 viewBox="0.00 0.00 396.00 160.00" xmlns="http://www.w3.org/2000/svg" xmlns:xlink="http://www.w3.org/1999/xlink">
<g id="graph0" class="graph" transform="scale(1 1) rotate(0) translate(4 156)">
<title>finite_state_machine</title>
<polygon fill="white" stroke="transparent" points="-4,4 -4,-156 392,-156 392,4 -4,4"/>
<!-- 0 -->
<g id="node1" class="node">
<title>0</title>
<ellipse fill="none" stroke="black" cx="18" cy="-77" rx="18" ry="18"/>
<text text-anchor="middle" x="18" y="-73.3" font-family="Helvetica,Arial,sans-serif" font-size="14.00">0</text>
</g>
<!-- 2 -->
<g id="node2" class="node">
<title>2</title>
<ellipse fill="none" stroke="black" cx="194" cy="-134" rx="18" ry="18"/>
<text text-anchor="middle" x="194" y="-130.3" font-family="Helvetica,Arial,sans-serif" font-size="14.00">2</text>
</g>
<!-- 0&#45;&gt;2 -->
<g id="edge1" class="edge">
<title>0&#45;&gt;2</title>
<path fill="none" stroke="black" d="M34.05,-85.9C40.13,-89.3 47.29,-93.06 54,-96 91.85,-112.58 101.88,-116.09 142,-126 149.66,-127.89 158.08,-129.43 165.83,-130.63"/>
<polygon fill="black" stroke="black" points="165.46,-134.11 175.85,-132.06 166.45,-127.18 165.46,-134.11"/>
<text text-anchor="middle" x="106" y="-124.8" font-family="Helvetica,Arial,sans-serif" font-size="14.00">8</text>
</g>
<!-- 3 -->
<g id="node3" class="node">
<title>3</title>
<ellipse fill="none" stroke="black" cx="106" cy="-77" rx="18" ry="18"/>
<text text-anchor="middle" x="106" y="-73.3" font-family="Helvetica,Arial,sans-serif" font-size="14.00">3</text>
</g>
<!-- 0&#45;&gt;3 -->
<g id="edge2" class="edge">
<title>0&#45;&gt;3</title>
<path fill="none" stroke="black" d="M36.4,-77C48.25,-77 64.18,-77 77.71,-77"/>
<polygon fill="black" stroke="black" points="77.92,-80.5 87.92,-77 77.92,-73.5 77.92,-80.5"/>
<text text-anchor="middle" x="62" y="-80.8" font-family="Helvetica,Arial,sans-serif" font-size="14.00">10</text>
</g>
<!-- 1 -->
<g id="node4" class="node">
<title>1</title>
<ellipse fill="none" stroke="black" cx="194" cy="-18" rx="18" ry="18"/>
<text text-anchor="middle" x="194" y="-14.3" font-family="Helvetica,Arial,sans-serif" font-size="14.00">1</text>
</g>
<!-- 0&#45;&gt;1 -->
<g id="edge3" class="edge">
<title>0&#45;&gt;1</title>
<path fill="none" stroke="black" d="M32.71,-66.44C46.07,-56.69 67.35,-42.63 88,-35 113.34,-25.64 144.01,-21.43 165.64,-19.54"/>
<polygon fill="black" stroke="black" points="166.05,-23.01 175.76,-18.76 165.52,-16.03 166.05,-23.01"/>
<text text-anchor="middle" x="106" y="-38.8" font-family="Helvetica,Arial,sans-serif" font-size="14.00">7</text>
</g>
<!-- 4 -->
<g id="node5" class="node">
<title>4</title>
<ellipse fill="none" stroke="black" cx="282" cy="-77" rx="18" ry="18"/>
<text text-anchor="middle" x="282" y="-73.3" font-family="Helvetica,Arial,sans-serif" font-size="14.00">4</text>
</g>
<!-- 2&#45;&gt;4 -->
<g id="edge10" class="edge">
<title>2&#45;&gt;4</title>
<path fill="none" stroke="black" d="M209.59,-124.33C222.89,-115.52 242.75,-102.35 258.16,-92.14"/>
<polygon fill="black" stroke="black" points="260.22,-94.97 266.63,-86.53 256.36,-89.13 260.22,-94.97"/>
<text text-anchor="middle" x="238" y="-113.8" font-family="Helvetica,Arial,sans-serif" font-size="14.00">12</text>
</g>
<!-- 5 -->
<g id="node6" class="node">
<title>5</title>
<ellipse fill="none" stroke="black" cx="370" cy="-77" rx="18" ry="18"/>
<text text-anchor="middle" x="370" y="-73.3" font-family="Helvetica,Arial,sans-serif" font-size="14.00">5</text>
</g>
<!-- 2&#45;&gt;5 -->
<g id="edge11" class="edge">
<title>2&#45;&gt;5</title>
<path fill="none" stroke="black" d="M212.15,-132.06C222.11,-130.75 234.86,-128.75 246,-126 286.12,-116.09 296.15,-112.58 334,-96 337.57,-94.44 341.26,-92.64 344.85,-90.79"/>
<polygon fill="black" stroke="black" points="346.8,-93.72 353.95,-85.9 343.48,-87.55 346.8,-93.72"/>
<text text-anchor="middle" x="282" y="-124.8" font-family="Helvetica,Arial,sans-serif" font-size="14.00">15</text>
</g>
<!-- 3&#45;&gt;2 -->
<g id="edge5" class="edge">
<title>3&#45;&gt;2</title>
<path fill="none" stroke="black" d="M121.59,-86.67C134.89,-95.48 154.75,-108.65 170.16,-118.86"/>
<polygon fill="black" stroke="black" points="168.36,-121.87 178.63,-124.47 172.22,-116.03 168.36,-121.87"/>
<text text-anchor="middle" x="150" y="-113.8" font-family="Helvetica,Arial,sans-serif" font-size="14.00">2</text>
</g>
<!-- 3&#45;&gt;1 -->
<g id="edge6" class="edge">
<title>3&#45;&gt;1</title>
<path fill="none" stroke="black" d="M119.9,-65.47C126.35,-59.93 134.38,-53.35 142,-48 150.52,-42.02 160.29,-36.07 168.98,-31.07"/>
<polygon fill="black" stroke="black" points="170.89,-34.02 177.88,-26.06 167.45,-27.92 170.89,-34.02"/>
<text text-anchor="middle" x="150" y="-51.8" font-family="Helvetica,Arial,sans-serif" font-size="14.00">11</text>
</g>
<!-- 3&#45;&gt;4 -->
<g id="edge4" class="edge">
<title>3&#45;&gt;4</title>
<path fill="none" stroke="black" d="M124,-77C154.15,-77 217.21,-77 253.57,-77"/>
<polygon fill="black" stroke="black" points="253.93,-80.5 263.93,-77 253.93,-73.5 253.93,-80.5"/>
<text text-anchor="middle" x="194" y="-80.8" font-family="Helvetica,Arial,sans-serif" font-size="14.00">5</text>
</g>
<!-- 1&#45;&gt;4 -->
<g id="edge7" class="edge">
<title>1&#45;&gt;4</title>
<path fill="none" stroke="black" d="M210.12,-26.06C220.48,-31.78 234.4,-39.86 246,-48 250.76,-51.34 255.69,-55.17 260.28,-58.92"/>
<polygon fill="black" stroke="black" points="258.19,-61.72 268.1,-65.47 262.68,-56.36 258.19,-61.72"/>
<text text-anchor="middle" x="238" y="-51.8" font-family="Helvetica,Arial,sans-serif" font-size="14.00">1</text>
</g>
<!-- 1&#45;&gt;5 -->
<g id="edge8" class="edge">
<title>1&#45;&gt;5</title>
<path fill="none" stroke="black" d="M212.24,-18.76C233.48,-20.15 270.38,-24.06 300,-35 316.78,-41.2 333.97,-51.64 347,-60.57"/>
<polygon fill="black" stroke="black" points="345.11,-63.52 355.29,-66.44 349.15,-57.8 345.11,-63.52"/>
<text text-anchor="middle" x="282" y="-38.8" font-family="Helvetica,Arial,sans-serif" font-size="14.00">21</text>
</g>
<!-- 4&#45;&gt;5 -->
<g id="edge9" class="edge">
<title>4&#45;&gt;5</title>
<path fill="none" stroke="black" d="M300.4,-77C312.25,-77 328.18,-77 341.71,-77"/>
<polygon fill="black" stroke="black" points="341.92,-80.5 351.92,-77 341.92,-73.5 341.92,-80.5"/>
<text text-anchor="middle" x="326" y="-80.8" font-family="Helvetica,Arial,sans-serif" font-size="14.00">14</text>
</g>
</g>
</svg>
