<?xml version="1.0" encoding="UTF-8" standalone="no"?>
<!DOCTYPE svg PUBLIC "-//W3C//DTD SVG 1.1//EN"
 "http://www.w3.org/Graphics/SVG/1.1/DTD/svg11.dtd">
<!-- Generated by graphviz version 2.42.3 (20191010.1750)
 -->
<!-- Title: finite_state_machine Pages: 1 -->
<svg width="476pt" height="484pt"
 viewBox="0.00 0.00 476.00 484.00" xmlns="http://www.w3.org/2000/svg" xmlns:xlink="http://www.w3.org/1999/xlink">
<g id="graph0" class="graph" transform="scale(1 1) rotate(0) translate(4 480)">
<title>finite_state_machine</title>
<polygon fill="white" stroke="transparent" points="-4,4 -4,-480 472,-480 472,4 -4,4"/>
<!-- 0 -->
<g id="node1" class="node">
<title>0</title>
<ellipse fill="none" stroke="black" cx="18" cy="-109" rx="18" ry="18"/>
<text text-anchor="middle" x="18" y="-105.3" font-family="Helvetica,Arial,sans-serif" font-size="14.00">0</text>
</g>
<!-- 2 -->
<g id="node2" class="node">
<title>2</title>
<ellipse fill="none" stroke="black" cx="98" cy="-214" rx="18" ry="18"/>
<text text-anchor="middle" x="98" y="-210.3" font-family="Helvetica,Arial,sans-serif" font-size="14.00">2</text>
</g>
<!-- 0&#45;&gt;2 -->
<g id="edge1" class="edge">
<title>0&#45;&gt;2</title>
<path fill="none" stroke="black" d="M23.17,-126.35C28.1,-143.84 37.75,-170.78 54,-189 58.94,-194.54 65.42,-199.18 71.84,-202.9"/>
<polygon fill="black" stroke="black" points="70.53,-206.17 81.02,-207.69 73.77,-199.96 70.53,-206.17"/>
<text text-anchor="middle" x="58" y="-199.8" font-family="Helvetica,Arial,sans-serif" font-size="14.00">8</text>
</g>
<!-- 3 -->
<g id="node3" class="node">
<title>3</title>
<ellipse fill="none" stroke="black" cx="450" cy="-232" rx="18" ry="18"/>
<text text-anchor="middle" x="450" y="-228.3" font-family="Helvetica,Arial,sans-serif" font-size="14.00">3</text>
</g>
<!-- 0&#45;&gt;3 -->
<g id="edge2" class="edge">
<title>0&#45;&gt;3</title>
<path fill="none" stroke="black" d="M27.23,-93.24C39.43,-72.33 64.41,-38 97,-38 97,-38 97,-38 363,-38 434.52,-38 447.02,-149.56 448.89,-203.48"/>
<polygon fill="black" stroke="black" points="445.4,-203.84 449.14,-213.75 452.4,-203.67 445.4,-203.84"/>
<text text-anchor="middle" x="230" y="-41.8" font-family="Helvetica,Arial,sans-serif" font-size="14.00">10</text>
</g>
<!-- 1 -->
<g id="node4" class="node">
<title>1</title>
<ellipse fill="none" stroke="black" cx="362" cy="-238" rx="18" ry="18"/>
<text text-anchor="middle" x="362" y="-234.3" font-family="Helvetica,Arial,sans-serif" font-size="14.00">1</text>
</g>
<!-- 0&#45;&gt;1 -->
<g id="edge3" class="edge">
<title>0&#45;&gt;1</title>
<path fill="none" stroke="black" d="M36.01,-108.05C81.05,-106.31 205.86,-106.58 292,-156 315.85,-169.69 335.17,-194.9 347.23,-213.78"/>
<polygon fill="black" stroke="black" points="344.34,-215.76 352.55,-222.45 350.3,-212.1 344.34,-215.76"/>
<text text-anchor="middle" x="186" y="-125.8" font-family="Helvetica,Arial,sans-serif" font-size="14.00">7</text>
</g>
<!-- 2&#45;&gt;0 -->
<g id="edge20" class="edge">
<title>2&#45;&gt;0</title>
<path fill="none" stroke="black" d="M86.4,-199.73C73.33,-182.14 50.98,-152.05 35.63,-131.38"/>
<polygon fill="black" stroke="black" points="38.29,-129.1 29.52,-123.16 32.67,-133.28 38.29,-129.1"/>
<text text-anchor="middle" x="58" y="-167.8" font-family="Helvetica,Arial,sans-serif" font-size="14.00">0</text>
</g>
<!-- 2&#45;&gt;3 -->
<g id="edge19" class="edge">
<title>2&#45;&gt;3</title>
<path fill="none" stroke="black" d="M101.26,-231.76C108.96,-288.4 136.41,-461 185,-461 185,-461 185,-461 363,-461 395.06,-461 398.92,-438.29 414,-410 439.71,-361.77 446.65,-297.13 448.45,-260.49"/>
<polygon fill="black" stroke="black" points="451.96,-260.2 448.86,-250.07 444.97,-259.92 451.96,-260.2"/>
<text text-anchor="middle" x="274" y="-464.8" font-family="Helvetica,Arial,sans-serif" font-size="14.00">0</text>
</g>
<!-- 4 -->
<g id="node6" class="node">
<title>4</title>
<ellipse fill="none" stroke="black" cx="186" cy="-268" rx="18" ry="18"/>
<text text-anchor="middle" x="186" y="-264.3" font-family="Helvetica,Arial,sans-serif" font-size="14.00">4</text>
</g>
<!-- 2&#45;&gt;4 -->
<g id="edge18" class="edge">
<title>2&#45;&gt;4</title>
<path fill="none" stroke="black" d="M112.24,-225.07C118.63,-230.19 126.51,-236.18 134,-241 142.32,-246.36 151.82,-251.6 160.34,-256.02"/>
<polygon fill="black" stroke="black" points="158.94,-259.23 169.44,-260.63 162.1,-252.99 158.94,-259.23"/>
<text text-anchor="middle" x="142" y="-252.8" font-family="Helvetica,Arial,sans-serif" font-size="14.00">12</text>
</g>
<!-- 3&#45;&gt;0 -->
<g id="edge17" class="edge">
<title>3&#45;&gt;0</title>
<path fill="none" stroke="black" d="M449.17,-213.78C448.73,-179.26 444.11,-102.88 414,-48 399.03,-20.71 394.13,0 363,0 97,0 97,0 97,0 56.9,0 35.44,-49.4 25.7,-81.69"/>
<polygon fill="black" stroke="black" points="22.28,-80.91 22.94,-91.49 29.02,-82.81 22.28,-80.91"/>
<text text-anchor="middle" x="230" y="-3.8" font-family="Helvetica,Arial,sans-serif" font-size="14.00">0</text>
</g>
<!-- 3&#45;&gt;2 -->
<g id="edge15" class="edge">
<title>3&#45;&gt;2</title>
<path fill="none" stroke="black" d="M437.62,-218.93C422.38,-202.95 393.68,-178 363,-178 185,-178 185,-178 185,-178 162.19,-178 138.44,-188.91 121.69,-198.71"/>
<polygon fill="black" stroke="black" points="119.83,-195.75 113.15,-203.97 123.5,-201.71 119.83,-195.75"/>
<text text-anchor="middle" x="274" y="-181.8" font-family="Helvetica,Arial,sans-serif" font-size="14.00">2</text>
</g>
<!-- 3&#45;&gt;1 -->
<g id="edge16" class="edge">
<title>3&#45;&gt;1</title>
<path fill="none" stroke="black" d="M434.35,-222.14C424.2,-216.54 410.34,-211.31 398,-215 393.49,-216.35 389.02,-218.49 384.86,-220.93"/>
<polygon fill="black" stroke="black" points="382.76,-218.13 376.36,-226.57 386.63,-223.96 382.76,-218.13"/>
<text text-anchor="middle" x="406" y="-218.8" font-family="Helvetica,Arial,sans-serif" font-size="14.00">11</text>
</g>
<!-- 3&#45;&gt;4 -->
<g id="edge14" class="edge">
<title>3&#45;&gt;4</title>
<path fill="none" stroke="black" d="M436.57,-244.22C411.72,-267.6 353.02,-317.6 292,-332 260.74,-339.38 246.49,-334.78 222,-314 214.44,-307.58 207.5,-299.27 201.83,-291.47"/>
<polygon fill="black" stroke="black" points="204.56,-289.27 196,-283.03 198.8,-293.24 204.56,-289.27"/>
<text text-anchor="middle" x="318" y="-329.8" font-family="Helvetica,Arial,sans-serif" font-size="14.00">5</text>
</g>
<!-- 1&#45;&gt;0 -->
<g id="edge13" class="edge">
<title>1&#45;&gt;0</title>
<path fill="none" stroke="black" d="M359.36,-220.03C354.55,-179.41 336.7,-84 275,-84 97,-84 97,-84 97,-84 78.45,-84 58.56,-90.49 43.5,-96.86"/>
<polygon fill="black" stroke="black" points="42.06,-93.67 34.37,-100.95 44.93,-100.05 42.06,-93.67"/>
<text text-anchor="middle" x="186" y="-87.8" font-family="Helvetica,Arial,sans-serif" font-size="14.00">0</text>
</g>
<!-- 1&#45;&gt;3 -->
<g id="edge12" class="edge">
<title>1&#45;&gt;3</title>
<path fill="none" stroke="black" d="M379.99,-236.81C391.81,-235.99 407.83,-234.87 421.46,-233.92"/>
<polygon fill="black" stroke="black" points="422.02,-237.39 431.75,-233.2 421.53,-230.41 422.02,-237.39"/>
<text text-anchor="middle" x="406" y="-238.8" font-family="Helvetica,Arial,sans-serif" font-size="14.00">0</text>
</g>
<!-- 5 -->
<g id="node5" class="node">
<title>5</title>
<ellipse fill="none" stroke="black" cx="274" cy="-229" rx="18" ry="18"/>
<text text-anchor="middle" x="274" y="-225.3" font-family="Helvetica,Arial,sans-serif" font-size="14.00">5</text>
</g>
<!-- 1&#45;&gt;5 -->
<g id="edge11" class="edge">
<title>1&#45;&gt;5</title>
<path fill="none" stroke="black" d="M348.45,-226.12C342.21,-221.02 334.25,-215.64 326,-213 317.23,-210.19 307.61,-211.96 299.1,-215.18"/>
<polygon fill="black" stroke="black" points="297.39,-212.11 289.74,-219.44 300.3,-218.48 297.39,-212.11"/>
<text text-anchor="middle" x="318" y="-216.8" font-family="Helvetica,Arial,sans-serif" font-size="14.00">21</text>
</g>
<!-- 1&#45;&gt;4 -->
<g id="edge10" class="edge">
<title>1&#45;&gt;4</title>
<path fill="none" stroke="black" d="M345.6,-245.49C339.59,-248.17 332.58,-251.02 326,-253 281.22,-266.48 268.76,-269.67 222,-269 219.45,-268.96 216.79,-268.91 214.13,-268.85"/>
<polygon fill="black" stroke="black" points="214.18,-265.35 204.09,-268.59 213.99,-272.35 214.18,-265.35"/>
<text text-anchor="middle" x="274" y="-271.8" font-family="Helvetica,Arial,sans-serif" font-size="14.00">1</text>
</g>
<!-- 5&#45;&gt;1 -->
<g id="edge5" class="edge">
<title>5&#45;&gt;1</title>
<path fill="none" stroke="black" d="M291.99,-230.78C303.89,-232.02 320.04,-233.71 333.73,-235.15"/>
<polygon fill="black" stroke="black" points="333.73,-238.67 344.04,-236.23 334.46,-231.7 333.73,-238.67"/>
<text text-anchor="middle" x="318" y="-237.8" font-family="Helvetica,Arial,sans-serif" font-size="14.00">0</text>
</g>
<!-- 5&#45;&gt;4 -->
<g id="edge4" class="edge">
<title>5&#45;&gt;4</title>
<path fill="none" stroke="black" d="M258.03,-219.71C247.49,-214.44 233.29,-209.99 222,-216 211.34,-221.68 203.34,-232.21 197.7,-242.32"/>
<polygon fill="black" stroke="black" points="194.54,-240.82 193.18,-251.33 200.79,-243.96 194.54,-240.82"/>
<text text-anchor="middle" x="230" y="-219.8" font-family="Helvetica,Arial,sans-serif" font-size="14.00">0</text>
</g>
<!-- 4&#45;&gt;2 -->
<g id="edge9" class="edge">
<title>4&#45;&gt;2</title>
<path fill="none" stroke="black" d="M175.82,-252.62C169.63,-243.55 160.66,-232.59 150,-226 142.82,-221.56 134.14,-218.76 126,-217"/>
<polygon fill="black" stroke="black" points="126.57,-213.55 116.12,-215.28 125.36,-220.44 126.57,-213.55"/>
<text text-anchor="middle" x="142" y="-229.8" font-family="Helvetica,Arial,sans-serif" font-size="14.00">0</text>
</g>
<!-- 4&#45;&gt;3 -->
<g id="edge8" class="edge">
<title>4&#45;&gt;3</title>
<path fill="none" stroke="black" d="M186.07,-286.24C185.78,-313.97 189.86,-366.15 222,-391 289.51,-443.19 348.1,-445.21 414,-391 433.84,-374.68 443.15,-301.38 446.88,-260.24"/>
<polygon fill="black" stroke="black" points="450.39,-260.31 447.75,-250.05 443.41,-259.71 450.39,-260.31"/>
<text text-anchor="middle" x="318" y="-433.8" font-family="Helvetica,Arial,sans-serif" font-size="14.00">0</text>
</g>
<!-- 4&#45;&gt;1 -->
<g id="edge7" class="edge">
<title>4&#45;&gt;1</title>
<path fill="none" stroke="black" d="M199.13,-280.89C205.39,-286.75 213.49,-293.21 222,-297 264.22,-315.8 287.61,-322.74 326,-297 337.59,-289.23 345.91,-276.21 351.51,-264.37"/>
<polygon fill="black" stroke="black" points="354.87,-265.42 355.6,-254.85 348.44,-262.66 354.87,-265.42"/>
<text text-anchor="middle" x="274" y="-316.8" font-family="Helvetica,Arial,sans-serif" font-size="14.00">0</text>
</g>
<!-- 4&#45;&gt;5 -->
<g id="edge6" class="edge">
<title>4&#45;&gt;5</title>
<path fill="none" stroke="black" d="M202.77,-260.85C215.38,-255.13 233.29,-247.01 247.87,-240.4"/>
<polygon fill="black" stroke="black" points="249.66,-243.43 257.33,-236.11 246.77,-237.05 249.66,-243.43"/>
<text text-anchor="middle" x="230" y="-254.8" font-family="Helvetica,Arial,sans-serif" font-size="14.00">14</text>
</g>
</g>
</svg>
